<?xml version="1.0" encoding="utf-8"?>
<!DOCTYPE svg PUBLIC "-//W3C//DTD SVG 1.1//EN" "http://www.w3.org/Graphics/SVG/1.1/DTD/svg11.dtd">
<svg version="1.1" id="Calque_1" xmlns="http://www.w3.org/2000/svg" xmlns:xlink="http://www.w3.org/1999/xlink" x="0px" y="0px"
	 width="22px" height="22px" viewBox="0 0 22 22" style="enable-background:new 0 0 22 22;" xml:space="preserve">
<style type="text/css">
<![CDATA[
	.st0{fill:#999999;}
	.st1{fill:#FFFFFF;}
	.st2{fill:#CCCCCC;}
]]>
</style>
<g>
	<g>
		<rect x="1" y="20" class="st2" width="1" height="1"/>
		<rect y="20" class="st0" width="1" height="1"/>
		<rect y="21" class="st2" width="1" height="1"/>
		<rect x="1" y="21" class="st1" width="1" height="1"/>
	</g>
	<g>
		<rect x="5" y="16" class="st2" width="1" height="1"/>
		<rect x="4" y="16" class="st0" width="1" height="1"/>
		<rect x="4" y="17" class="st2" width="1" height="1"/>
		<rect x="5" y="17" class="st1" width="1" height="1"/>
	</g>
	<g>
		<rect x="5" y="20" class="st2" width="1" height="1"/>
		<rect x="4" y="20" class="st0" width="1" height="1"/>
		<rect x="4" y="21" class="st2" width="1" height="1"/>
		<rect x="5" y="21" class="st1" width="1" height="1"/>
	</g>
	<g>
		<rect x="9" y="12" class="st2" width="1" height="1"/>
		<rect x="8" y="12" class="st0" width="1" height="1"/>
		<rect x="8" y="13" class="st2" width="1" height="1"/>
		<rect x="9" y="13" class="st1" width="1" height="1"/>
	</g>
	<g>
		<rect x="9" y="16" class="st2" width="1" height="1"/>
		<rect x="8" y="16" class="st0" width="1" height="1"/>
		<rect x="8" y="17" class="st2" width="1" height="1"/>
		<rect x="9" y="17" class="st1" width="1" height="1"/>
	</g>
	<g>
		<rect x="9" y="20" class="st2" width="1" height="1"/>
		<rect x="8" y="20" class="st0" width="1" height="1"/>
		<rect x="8" y="21" class="st2" width="1" height="1"/>
		<rect x="9" y="21" class="st1" width="1" height="1"/>
	</g>
	<g>
		<rect x="13" y="8" class="st2" width="1" height="1"/>
		<rect x="12" y="8" class="st0" width="1" height="1"/>
		<rect x="12" y="9" class="st2" width="1" height="1"/>
		<rect x="13" y="9" class="st1" width="1" height="1"/>
	</g>
	<g>
		<rect x="13" y="12" class="st2" width="1" height="1"/>
		<rect x="12" y="12" class="st0" width="1" height="1"/>
		<rect x="12" y="13" class="st2" width="1" height="1"/>
		<rect x="13" y="13" class="st1" width="1" height="1"/>
	</g>
	<g>
		<rect x="13" y="16" class="st2" width="1" height="1"/>
		<rect x="12" y="16" class="st0" width="1" height="1"/>
		<rect x="12" y="17" class="st2" width="1" height="1"/>
		<rect x="13" y="17" class="st1" width="1" height="1"/>
	</g>
	<g>
		<rect x="13" y="20" class="st2" width="1" height="1"/>
		<rect x="12" y="20" class="st0" width="1" height="1"/>
		<rect x="12" y="21" class="st2" width="1" height="1"/>
		<rect x="13" y="21" class="st1" width="1" height="1"/>
	</g>
	<g>
		<rect x="17" y="4" class="st2" width="1" height="1"/>
		<rect x="16" y="4" class="st0" width="1" height="1"/>
		<rect x="16" y="5" class="st2" width="1" height="1"/>
		<rect x="17" y="5" class="st1" width="1" height="1"/>
	</g>
	<g>
		<rect x="17" y="8" class="st2" width="1" height="1"/>
		<rect x="16" y="8" class="st0" width="1" height="1"/>
		<rect x="16" y="9" class="st2" width="1" height="1"/>
		<rect x="17" y="9" class="st1" width="1" height="1"/>
	</g>
	<g>
		<rect x="17" y="12" class="st2" width="1" height="1"/>
		<rect x="16" y="12" class="st0" width="1" height="1"/>
		<rect x="16" y="13" class="st2" width="1" height="1"/>
		<rect x="17" y="13" class="st1" width="1" height="1"/>
	</g>
	<g>
		<rect x="17" y="16" class="st2" width="1" height="1"/>
		<rect x="16" y="16" class="st0" width="1" height="1"/>
		<rect x="16" y="17" class="st2" width="1" height="1"/>
		<rect x="17" y="17" class="st1" width="1" height="1"/>
	</g>
	<g>
		<rect x="17" y="20" class="st2" width="1" height="1"/>
		<rect x="16" y="20" class="st0" width="1" height="1"/>
		<rect x="16" y="21" class="st2" width="1" height="1"/>
		<rect x="17" y="21" class="st1" width="1" height="1"/>
	</g>
	<g>
		<rect x="21" class="st2" width="1" height="1"/>
		<rect x="20" class="st0" width="1" height="1"/>
		<rect x="20" y="1" class="st2" width="1" height="1"/>
		<rect x="21" y="1" class="st1" width="1" height="1"/>
	</g>
	<g>
		<rect x="21" y="4" class="st2" width="1" height="1"/>
		<rect x="20" y="4" class="st0" width="1" height="1"/>
		<rect x="20" y="5" class="st2" width="1" height="1"/>
		<rect x="21" y="5" class="st1" width="1" height="1"/>
	</g>
	<g>
		<rect x="21" y="8" class="st2" width="1" height="1"/>
		<rect x="20" y="8" class="st0" width="1" height="1"/>
		<rect x="20" y="9" class="st2" width="1" height="1"/>
		<rect x="21" y="9" class="st1" width="1" height="1"/>
	</g>
	<g>
		<rect x="21" y="12" class="st2" width="1" height="1"/>
		<rect x="20" y="12" class="st0" width="1" height="1"/>
		<rect x="20" y="13" class="st2" width="1" height="1"/>
		<rect x="21" y="13" class="st1" width="1" height="1"/>
	</g>
	<g>
		<rect x="21" y="16" class="st2" width="1" height="1"/>
		<rect x="20" y="16" class="st0" width="1" height="1"/>
		<rect x="20" y="17" class="st2" width="1" height="1"/>
		<rect x="21" y="17" class="st1" width="1" height="1"/>
	</g>
	<g>
		<rect x="21" y="20" class="st2" width="1" height="1"/>
		<rect x="20" y="20" class="st0" width="1" height="1"/>
		<rect x="20" y="21" class="st2" width="1" height="1"/>
		<rect x="21" y="21" class="st1" width="1" height="1"/>
	</g>
</g>
</svg>
