<?xml version="1.0" encoding="utf-8"?>
<!-- Generator: Adobe Illustrator 15.0.0, SVG Export Plug-In . SVG Version: 6.00 Build 0)  -->
<!DOCTYPE svg PUBLIC "-//W3C//DTD SVG 1.1//EN" "http://www.w3.org/Graphics/SVG/1.1/DTD/svg11.dtd">
<svg version="1.1" id="Calque_1" xmlns="http://www.w3.org/2000/svg" xmlns:xlink="http://www.w3.org/1999/xlink" x="0px" y="0px"
	 width="16px" height="16px" viewBox="0 0 16 16" style="enable-background:new 0 0 16 16;" xml:space="preserve">
<style type="text/css">
<![CDATA[
	.st0{fill:#F62400;}
	.st1{fill:#FFFFFF;}
]]>
</style>
<g>
	<path class="st0" d="M8,2C4.687,2,2,4.686,2,8s2.687,6,6,6s6-2.686,6-6S11.313,2,8,2z"/>
	<path class="st1" d="M8.007,12.021c-0.64,0-1.132-0.52-1.132-1.119c0-0.64,0.492-1.131,1.132-1.131
		c0.625,0,1.118,0.507,1.118,1.131C9.125,11.502,8.619,12.021,8.007,12.021z"/>
	<path class="st1" d="M8.893,8.579C8.871,8.778,8.829,8.788,8.672,8.788H7.327c-0.157,0-0.198-0.01-0.22-0.209L6.878,4.494
		C6.867,4.316,6.867,4.349,6.867,4.285c0-0.136,0.104-0.136,0.188-0.136h1.868c0.083,0,0.21,0,0.21,0.136
		c0,0.063,0,0.031-0.011,0.209L8.893,8.579z"/>
</g>
</svg>
